<svg width="158" height="48" viewBox="0 0 158 48" fill="none" xmlns="http://www.w3.org/2000/svg">
<path d="M60.5164 17.7857V14.5497H76.4119V17.7857H70.469V33.6076H66.4723V17.7857H60.5164ZM83.7887 33.8485C87.9238 33.8485 90.4626 31.6572 90.4626 27.9795V19.1731H86.5367V27.736C86.5367 29.5941 85.5291 30.6192 83.8018 30.6192C82.0745 30.6192 81.0669 29.5941 81.0669 27.736V19.1731H77.1412V27.9795C77.1412 31.6572 79.6667 33.8485 83.7887 33.8485ZM93.8063 38.8456V19.1768H97.6591V21.5814H97.8422C98.016 21.2062 98.2712 20.8182 98.6059 20.4175C98.9412 20.0167 99.3855 19.6799 99.9384 19.407C100.491 19.1342 101.182 18.9977 102.009 18.9977C103.089 18.9977 104.077 19.2706 104.973 19.8164C105.87 20.3621 106.586 21.1807 107.122 22.2721C107.658 23.3636 107.925 24.8546 107.925 26.4833C107.925 28.0693 107.664 29.4101 107.142 30.5059C106.619 31.6016 105.91 32.433 105.013 33C104.116 33.5671 103.106 33.8506 101.982 33.8506C101.19 33.8506 100.52 33.7184 99.9711 33.4541C99.4225 33.1897 98.9763 32.8636 98.6324 32.4756C98.2884 32.0876 98.0246 31.7018 97.8422 31.3181H97.7245V38.8456H93.8063ZM100.781 30.7681C101.8 30.7681 102.577 30.3673 103.112 29.5658C103.648 28.7643 103.916 27.7325 103.916 26.4705C103.916 25.217 103.65 24.0607 103.119 23.2634C102.588 22.4661 101.808 22.0675 100.781 22.0675C99.7708 22.0675 98.9935 22.4555 98.4493 23.2314C97.9051 24.0074 97.6333 25.1744 97.6333 26.4705C97.6333 27.7666 97.9075 28.8068 98.4561 29.5913C99.0046 30.3758 99.7794 30.7681 100.781 30.7681ZM114.929 33.6971C113.44 33.6971 112.346 33.3816 111.644 32.7506C110.943 32.1196 110.593 31.1688 110.593 29.8983V14.5497H114.511V29.374C114.511 29.8344 114.592 30.167 114.753 30.3716C114.914 30.5762 115.191 30.6785 115.583 30.6785C115.792 30.6785 115.954 30.67 116.072 30.653C116.19 30.6359 116.292 30.6146 116.379 30.589L116.993 33.3902C116.784 33.4583 116.501 33.5266 116.144 33.5948C115.787 33.663 115.382 33.6971 114.929 33.6971ZM124.921 33.889C123.432 33.889 122.148 33.5905 121.068 32.9937C119.988 32.3967 119.159 31.5483 118.58 30.4483C118.001 29.3483 117.712 28.0437 117.712 26.5344C117.712 25.0592 118.001 23.7674 118.58 22.6589C119.159 21.5504 119.973 20.6849 121.023 20.0624C122.072 19.4399 123.306 19.1287 124.725 19.1287C125.997 19.1287 127.15 19.393 128.186 19.9218C129.223 20.4504 130.048 21.252 130.662 22.3263C131.276 23.4008 131.583 24.7523 131.583 26.3809V27.4554H121.59C121.634 28.6235 121.965 29.5061 122.583 30.103C123.201 30.6999 124.003 30.9983 124.986 30.9983C125.674 30.9983 126.264 30.8555 126.757 30.5699C127.248 30.2842 127.598 29.8642 127.808 29.31L131.361 29.9623C131.003 31.1476 130.265 32.0983 129.147 32.8146C128.027 33.5308 126.619 33.889 124.921 33.889ZM121.617 25.0507H127.808C127.712 24.1213 127.407 23.3837 126.893 22.838C126.38 22.2922 125.67 22.0194 124.764 22.0194C123.824 22.0194 123.084 22.3029 122.544 22.87C122.004 23.437 121.695 24.1639 121.617 25.0507Z" fill="white" style="fill:white;fill-opacity:1;"/>
<path d="M27 13.3835V27.2421C27 28.0401 27.566 28.731 28.3615 28.9042L40.9338 31.6401C41.8712 31.8441 42.8 31.2653 43.0083 30.3473C43.0358 30.2261 43.0497 30.1022 43.0497 29.978V10.6476C43.0497 9.70726 42.2713 8.94495 41.311 8.94495C41.1841 8.94495 41.0577 8.95854 40.9338 8.9855L28.3615 11.7214C27.566 11.8945 27 12.5855 27 13.3835Z" fill="white" style="fill:white;fill-opacity:1;"/>
<path d="M47.9973 15.4932C48.9575 15.4932 49.736 16.2555 49.736 17.1958V37.1811C49.736 37.3053 49.7221 37.4292 49.6946 37.5505C49.4862 38.4684 48.5575 39.0472 47.6201 38.8432L35.0478 36.1073C34.2523 35.9341 33.6863 35.2432 33.6863 34.4452V31.9175L40.823 33.4712C42.6979 33.8792 44.5554 32.7216 44.972 30.8857C45.0271 30.6431 45.0548 30.3954 45.0548 30.147L45.0535 16.0904L47.6201 15.5337C47.682 15.5203 47.7446 15.5101 47.8075 15.5033L47.9973 15.4932Z" fill="white" fill-opacity="0.5" style="fill:white;fill-opacity:0.5;"/>
</svg>
